<?xml version="1.0" encoding="UTF-8" standalone="no"?>
<!-- Created with Inkscape (http://www.inkscape.org/) -->

<svg
   xmlns:dc="http://purl.org/dc/elements/1.1/"
   xmlns:cc="http://creativecommons.org/ns#"
   xmlns:rdf="http://www.w3.org/1999/02/22-rdf-syntax-ns#"
   xmlns:svg="http://www.w3.org/2000/svg"
   xmlns="http://www.w3.org/2000/svg"
   xmlns:sodipodi="http://sodipodi.sourceforge.net/DTD/sodipodi-0.dtd"
   xmlns:inkscape="http://www.inkscape.org/namespaces/inkscape"
   width="210mm"
   height="297mm"
   viewBox="0 0 210 297"
   version="1.1"
   id="svg8"
   inkscape:version="0.92.3 (2405546, 2018-03-11)"
   sodipodi:docname="ifl.svg">
  <defs
     id="defs2" />
  <sodipodi:namedview
     id="base"
     pagecolor="#ffffff"
     bordercolor="#666666"
     borderopacity="1.0"
     inkscape:pageopacity="0.0"
     inkscape:pageshadow="2"
     inkscape:zoom="7.2571428"
     inkscape:cx="66.002137"
     inkscape:cy="49.752495"
     inkscape:document-units="mm"
     inkscape:current-layer="g5323"
     showgrid="false"
     showguides="true"
     inkscape:window-width="1920"
     inkscape:window-height="1017"
     inkscape:window-x="3192"
     inkscape:window-y="89"
     inkscape:window-maximized="1"
     inkscape:guide-bbox="true" />
  <metadata
     id="metadata5">
    <rdf:RDF>
      <cc:Work
         rdf:about="">
        <dc:format>image/svg+xml</dc:format>
        <dc:type
           rdf:resource="http://purl.org/dc/dcmitype/StillImage" />
        <dc:title />
      </cc:Work>
    </rdf:RDF>
  </metadata>
  <g
     inkscape:label="Layer 1"
     inkscape:groupmode="layer"
     id="layer1">
    <g
       id="g5330"
       inkscape:export-xdpi="2574.27"
       inkscape:export-ydpi="2574.27">
      <path
         id="path4528"
         d="m 1.640943,288.11252 h 1.4732647 l -0.2771995,1.33467 H 1.3637435 Z"
         style="font-style:italic;font-variant:normal;font-weight:bold;font-stretch:normal;font-size:medium;line-height:125%;font-family:Arial;-inkscape-font-specification:'Arial Bold Italic';letter-spacing:0px;word-spacing:0px;fill:#adeea0;fill-opacity:1;stroke:#17520d;stroke-width:0.163;stroke-linecap:butt;stroke-linejoin:miter;stroke-miterlimit:4;stroke-dasharray:none;stroke-opacity:1"
         inkscape:connector-curvature="0"
         inkscape:export-xdpi="2574.27"
         inkscape:export-ydpi="2574.27" />
      <path
         id="path4508"
         d="m 1.2097437,290.18638 h 1.4732645 l -1.1395985,5.4516 H 0.07014517 Z"
         style="font-style:italic;font-variant:normal;font-weight:bold;font-stretch:normal;font-size:medium;line-height:125%;font-family:Arial;-inkscape-font-specification:'Arial Bold Italic';letter-spacing:0px;word-spacing:0px;fill:#adeea0;fill-opacity:1;stroke:#17520d;stroke-width:0.163;stroke-linecap:butt;stroke-linejoin:miter;stroke-miterlimit:4;stroke-dasharray:none;stroke-opacity:1"
         inkscape:connector-curvature="0"
         inkscape:export-xdpi="2574.27"
         inkscape:export-ydpi="2574.27" />
      <path
         sodipodi:nodetypes="ccccc"
         inkscape:connector-curvature="0"
         id="path4524"
         d="m 3.6964862,288.1125 -0.2779627,1.35171 H 7.058583 l 0.266944,-1.35171 z"
         style="font-style:italic;font-variant:normal;font-weight:bold;font-stretch:normal;font-size:medium;line-height:125%;font-family:Arial;-inkscape-font-specification:'Arial Bold Italic';letter-spacing:0px;word-spacing:0px;fill:#e98858;fill-opacity:1;stroke:#74310f;stroke-width:0.163;stroke-linecap:butt;stroke-linejoin:miter;stroke-miterlimit:4;stroke-dasharray:none;stroke-opacity:1"
         inkscape:export-xdpi="2574.27"
         inkscape:export-ydpi="2574.27" />
      <path
         inkscape:connector-curvature="0"
         id="path4510"
         d="m 3.1991967,290.18638 -0.2779633,1.25768 H 6.525205 l 0.26171,-1.25768 z"
         style="font-style:italic;font-variant:normal;font-weight:bold;font-stretch:normal;font-size:medium;line-height:125%;font-family:Arial;-inkscape-font-specification:'Arial Bold Italic';letter-spacing:0px;word-spacing:0px;fill:#e98858;fill-opacity:1;stroke:#74310f;stroke-width:0.163;stroke-linecap:butt;stroke-linejoin:miter;stroke-miterlimit:4;stroke-dasharray:none;stroke-opacity:1"
         inkscape:export-xdpi="2574.27"
         inkscape:export-ydpi="2574.27" />
      <path
         d="m 6.1379925,295.63798 1.5759313,-7.52546 h 1.5451313 l -1.3089983,6.26779 h 3.8294592 l -0.261797,1.25767 z"
         style="font-style:italic;font-variant:normal;font-weight:bold;font-stretch:normal;font-size:medium;line-height:125%;font-family:Arial;-inkscape-font-specification:'Arial Bold Italic';letter-spacing:0px;word-spacing:0px;fill:#9dd4ee;fill-opacity:1;stroke:#165c7d;stroke-width:0.163;stroke-linecap:butt;stroke-linejoin:miter;stroke-miterlimit:4;stroke-dasharray:none;stroke-opacity:1"
         id="path4512"
         inkscape:connector-curvature="0"
         inkscape:export-xdpi="2574.27"
         inkscape:export-ydpi="2574.27" />
    </g>
    <g
       id="g5323"
       inkscape:export-xdpi="2574.27"
       inkscape:export-ydpi="2574.27">
      <path
         d="M 1.5494642e-7,296.01345 H 0.56716308 l 0.0685697,0.19454 -0.0462446,0.0175 q -0.0292352,-0.068 -0.0574075,-0.0978 -0.0281721,-0.0298 -0.0653804,-0.0425 -0.0372085,-0.0128 -0.11694087,-0.0128 H 0.18976306 v 0.28491 h 0.0728224 q 0.0574073,0 0.08239,-0.0112 0.0249829,-0.0112 0.0382715,-0.0351 0.0132882,-0.0245 0.0132882,-0.0691 v -0.0197 h 0.0520918 v 0.3253 h -0.0520913 v -0.0287 q 0,-0.042 -0.0127569,-0.0654 -0.0127569,-0.0234 -0.0350824,-0.0335 -0.0217934,-0.0106 -0.0781377,-0.0106 h -0.0807957 v 0.23069 q 0,0.0319 0.006379,0.0447 0.006911,0.0122 0.0196672,0.0191 0.0132882,0.006 0.0467765,0.006 h 0.0196672 v 0.0446 H 8.6573814e-7 v -0.0446 H 0.01807346 q 0.0340192,0 0.04677631,-0.006 0.01328825,-0.006 0.01913576,-0.0197 0.0063793,-0.0138 0.0063793,-0.0494 v -0.50444 q 0,-0.033 -0.0058463,-0.0462 -0.0058463,-0.0133 -0.01807277,-0.0191 -0.0116943,-0.006 -0.04146083,-0.006 H 2.2873216e-6 Z"
         style="font-style:normal;font-variant:normal;font-weight:normal;font-stretch:normal;font-size:medium;line-height:125%;font-family:'Bookman Old Style';-inkscape-font-specification:'Bookman Old Style';letter-spacing:0px;word-spacing:0px;fill:#17520d;fill-opacity:1;stroke:none;stroke-width:0.02721532px;stroke-linecap:butt;stroke-linejoin:miter;stroke-opacity:1"
         id="path4560"
         inkscape:connector-curvature="0"
         inkscape:export-xdpi="2574.27"
         inkscape:export-ydpi="2574.27" />
      <path
         d="m 1.0609721,296.44719 v -0.0579 q 0,-0.059 -0.032956,-0.084 -0.0329561,-0.0255 -0.0930212,-0.0255 -0.0297667,0 -0.0520918,0.007 -0.0223251,0.007 -0.0361454,0.0197 -0.0132882,0.0122 -0.0196673,0.0282 -0.002658,0.006 -0.0127569,0.0452 -0.0122256,0.0478 -0.049434,0.0478 -0.0212619,0 -0.0345507,-0.0138 -0.0127569,-0.0143 -0.0127569,-0.0383 0,-0.0351 0.0260459,-0.0686 0.0260459,-0.034 0.0792007,-0.0558 0.0536865,-0.0223 0.12650885,-0.0223 0.0680382,0 0.11640915,0.0213 0.048371,0.0207 0.071228,0.0601 0.015947,0.0271 0.015947,0.0989 v 0.20465 q 0,0.0436 0.00266,0.0569 0.00585,0.0229 0.020199,0.0346 0.014884,0.0112 0.038272,0.0112 0.024451,0 0.05847,-0.0117 v 0.0462 q -0.044119,0.0128 -0.079201,0.0128 -0.03774,0 -0.063786,-0.0106 -0.025514,-0.0106 -0.041992,-0.0308 -0.016478,-0.0207 -0.021262,-0.0489 -0.063786,0.05 -0.11534616,0.0702 -0.0515601,0.0202 -0.10418358,0.0202 -0.0733537,0 -0.11906704,-0.0399 -0.0457131,-0.0399 -0.0457131,-0.0935 0,-0.0324 0.0164779,-0.0617 0.0170092,-0.0292 0.0510288,-0.0516 0.0345507,-0.0223 0.1079044,-0.0393 0.0733539,-0.017 0.20358338,-0.0308 z m 0,0.0463 q -0.12331932,0.0181 -0.15255454,0.025 -0.0579389,0.0133 -0.0829217,0.0292 -0.0249829,0.016 -0.0356139,0.0346 -0.0106317,0.0181 -0.0106317,0.0388 0,0.0207 0.0116943,0.0404 0.0122256,0.0191 0.0340192,0.0303 0.0217934,0.0112 0.0462446,0.0112 0.0345507,0 0.0781379,-0.0165 0.043587,-0.0165 0.11162524,-0.0643 z"
         style="font-style:normal;font-variant:normal;font-weight:normal;font-stretch:normal;font-size:medium;line-height:125%;font-family:'Bookman Old Style';-inkscape-font-specification:'Bookman Old Style';letter-spacing:0px;word-spacing:0px;fill:#17520d;fill-opacity:1;stroke:none;stroke-width:0.02721532px;stroke-linecap:butt;stroke-linejoin:miter;stroke-opacity:1"
         id="path4562"
         inkscape:connector-curvature="0"
         inkscape:export-xdpi="2574.27"
         inkscape:export-ydpi="2574.27" />
      <path
         d="m 1.6701274,296.24201 h 0.037208 l 0.047839,0.16266 -0.047839,0.0159 q -0.028704,-0.0654 -0.080795,-0.10259 -0.05156,-0.0377 -0.1047153,-0.0377 -0.040929,0 -0.066444,0.0202 -0.025514,0.0197 -0.025514,0.0457 0,0.0245 0.018604,0.042 0.018073,0.0181 0.081327,0.0409 l 0.1036521,0.0367 q 0.087706,0.0314 0.1195986,0.067 0.031361,0.0361 0.031361,0.0819 0,0.0388 -0.023388,0.075 -0.023388,0.0356 -0.068038,0.0569 -0.044118,0.0213 -0.1015258,0.0213 -0.0893,0 -0.1530862,-0.051 l -0.011163,0.0383 h -0.03774 l -0.066444,-0.17382 0.048371,-0.0191 q 0.048371,0.0765 0.091427,0.10843 0.060065,0.0452 0.129698,0.0452 0.046245,0 0.076012,-0.0245 0.029767,-0.025 0.029767,-0.0553 0,-0.025 -0.018604,-0.0457 -0.019136,-0.0202 -0.073354,-0.0393 l -0.1227878,-0.0446 q -0.079201,-0.0287 -0.1100306,-0.0627 -0.03083,-0.034 -0.03083,-0.0781 0,-0.0537 0.049966,-0.0946 0.050497,-0.0415 0.1281033,-0.0415 0.040398,0 0.072291,0.0106 0.031893,0.0101 0.062723,0.034 z"
         style="font-style:normal;font-variant:normal;font-weight:normal;font-stretch:normal;font-size:medium;line-height:125%;font-family:'Bookman Old Style';-inkscape-font-specification:'Bookman Old Style';letter-spacing:0px;word-spacing:0px;fill:#17520d;fill-opacity:1;stroke:none;stroke-width:0.02721532px;stroke-linecap:butt;stroke-linejoin:miter;stroke-opacity:1"
         id="path4564"
         inkscape:connector-curvature="0"
         inkscape:export-xdpi="2574.27"
         inkscape:export-ydpi="2574.27" />
      <path
         d="m 2.0156343,296.06129 h 0.03774 v 0.18072 h 0.15787 v 0.0532 h -0.15787 v 0.32052 q 0,0.0409 0.00691,0.0585 0.00744,0.0175 0.024451,0.0287 0.01754,0.0112 0.038803,0.0112 0.050497,0 0.1116252,-0.0452 v 0.0516 q -0.069633,0.0473 -0.1408605,0.0473 -0.040398,0 -0.073354,-0.0181 -0.032425,-0.0181 -0.04465,-0.0425 -0.011694,-0.0245 -0.011694,-0.085 v -0.3269 H 1.871584 v -0.0446 q 0.04465,-0.0101 0.071759,-0.0314 0.027641,-0.0213 0.04465,-0.0553 0.017009,-0.034 0.02764,-0.10259 z"
         style="font-style:normal;font-variant:normal;font-weight:normal;font-stretch:normal;font-size:medium;line-height:125%;font-family:'Bookman Old Style';-inkscape-font-specification:'Bookman Old Style';letter-spacing:0px;word-spacing:0px;fill:#17520d;fill-opacity:1;stroke:none;stroke-width:0.02721532px;stroke-linecap:butt;stroke-linejoin:miter;stroke-opacity:1"
         id="path4566"
         inkscape:connector-curvature="0"
         inkscape:export-xdpi="2574.27"
         inkscape:export-ydpi="2574.27" />
      <path
         d="m 2.3106442,296.45144 h 0.3157401 v 0.0659 H 2.3106442 Z"
         style="font-style:normal;font-variant:normal;font-weight:normal;font-stretch:normal;font-size:medium;line-height:125%;font-family:'Bookman Old Style';-inkscape-font-specification:'Bookman Old Style';letter-spacing:0px;word-spacing:0px;fill:#17520d;fill-opacity:1;stroke:none;stroke-width:0.02721532px;stroke-linecap:butt;stroke-linejoin:miter;stroke-opacity:1"
         id="path4568"
         inkscape:connector-curvature="0"
         inkscape:export-xdpi="2574.27"
         inkscape:export-ydpi="2574.27" />
      <path
         d="m 2.7231262,296.24201 h 0.090895 v -0.0797 q 0,-0.0824 0.054218,-0.13448 0.05475,-0.0526 0.1424553,-0.0526 0.05847,0 0.090895,0.0245 0.032956,0.0245 0.032956,0.0531 0,0.0191 -0.013288,0.0324 -0.012757,0.0127 -0.032424,0.0127 -0.01754,0 -0.030298,-0.006 -0.012757,-0.006 -0.039335,-0.0319 -0.028172,-0.0266 -0.053686,-0.0266 -0.01754,0 -0.031893,0.0112 -0.01382,0.0106 -0.021794,0.0319 -0.00744,0.0207 -0.00744,0.0643 v 0.10152 h 0.099931 v 0.0542 h -0.099932 v 0.34498 q 0,0.0356 0.00531,0.0478 0.00531,0.0117 0.015947,0.0165 0.010632,0.005 0.049434,0.005 h 0.021794 v 0.0446 H 2.7231259 v -0.0446 h 0.016478 q 0.041992,0 0.053155,-0.005 0.011694,-0.005 0.016478,-0.017 0.00531,-0.0122 0.00478,-0.0547 v -0.337 h -0.090895 z"
         style="font-style:normal;font-variant:normal;font-weight:normal;font-stretch:normal;font-size:medium;line-height:125%;font-family:'Bookman Old Style';-inkscape-font-specification:'Bookman Old Style';letter-spacing:0px;word-spacing:0px;fill:#17520d;fill-opacity:1;stroke:none;stroke-width:0.02721532px;stroke-linecap:butt;stroke-linejoin:miter;stroke-opacity:1"
         id="path4570"
         inkscape:connector-curvature="0"
         inkscape:export-xdpi="2574.27"
         inkscape:export-ydpi="2574.27" />
      <path
         d="m 3.3434441,296.22926 q 0.078138,0 0.1350135,0.0324 0.057407,0.0324 0.090363,0.0946 0.032956,0.0622 0.032956,0.14192 0,0.0797 -0.034019,0.14192 -0.033488,0.0622 -0.091958,0.0952 -0.057939,0.0324 -0.1387342,0.0324 -0.1286349,0 -0.1934839,-0.0803 -0.064318,-0.0803 -0.064318,-0.1887 0,-0.0792 0.033488,-0.14033 0.033488,-0.0617 0.093553,-0.0951 0.060597,-0.034 0.1371398,-0.034 z m -0.00425,0.0516 q -0.060597,0 -0.1025889,0.0478 -0.053155,0.0595 -0.053155,0.17328 0,0.1095 0.045182,0.16691 0.040929,0.051 0.1110939,0.051 0.045182,0 0.080264,-0.0239 0.035614,-0.0239 0.057407,-0.076 0.021794,-0.0526 0.021794,-0.12331 0,-0.0691 -0.023388,-0.12386 -0.018073,-0.0436 -0.054749,-0.0675 -0.036145,-0.0245 -0.081859,-0.0245 z"
         style="font-style:normal;font-variant:normal;font-weight:normal;font-stretch:normal;font-size:medium;line-height:125%;font-family:'Bookman Old Style';-inkscape-font-specification:'Bookman Old Style';letter-spacing:0px;word-spacing:0px;fill:#17520d;fill-opacity:1;stroke:none;stroke-width:0.02721532px;stroke-linecap:butt;stroke-linejoin:miter;stroke-opacity:1"
         id="path4572"
         inkscape:connector-curvature="0"
         inkscape:export-xdpi="2574.27"
         inkscape:export-ydpi="2574.27" />
      <path
         d="m 3.6841671,296.31802 v -0.0436 q 0.038803,-0.003 0.069101,-0.0128 0.030298,-0.0101 0.069101,-0.0324 h 0.039866 v 0.10046 q 0.03774,-0.0462 0.087706,-0.0734 0.049965,-0.0271 0.089832,-0.0271 0.039334,0 0.062191,0.0186 0.022857,0.0186 0.022857,0.0452 0,0.0191 -0.015415,0.034 -0.014884,0.0143 -0.036145,0.0143 -0.00957,0 -0.016478,-0.003 -0.00691,-0.003 -0.020199,-0.0117 -0.029235,-0.0191 -0.048903,-0.0191 -0.026577,0 -0.05847,0.0223 -0.040398,0.0287 -0.063254,0.0563 v 0.24505 q 0,0.0319 0.00319,0.0436 0.00372,0.0112 0.011694,0.0197 0.00797,0.008 0.019667,0.0117 0.011694,0.004 0.040929,0.004 h 0.01754 v 0.0446 H 3.6841669 v -0.0446 h 0.022857 q 0.032424,0 0.042524,-0.006 0.01382,-0.008 0.020199,-0.0218 0.00691,-0.0143 0.00691,-0.051 v -0.31362 z"
         style="font-style:normal;font-variant:normal;font-weight:normal;font-stretch:normal;font-size:medium;line-height:125%;font-family:'Bookman Old Style';-inkscape-font-specification:'Bookman Old Style';letter-spacing:0px;word-spacing:0px;fill:#17520d;fill-opacity:1;stroke:none;stroke-width:0.02721532px;stroke-linecap:butt;stroke-linejoin:miter;stroke-opacity:1"
         id="path4574"
         inkscape:connector-curvature="0"
         inkscape:export-xdpi="2574.27"
         inkscape:export-ydpi="2574.27" />
      <path
         d="m 4.1237582,296.24201 h 0.2445127 v 0.0446 h -0.017009 q -0.031361,0 -0.041461,0.005 -0.015947,0.007 -0.015947,0.0234 0,0.0149 0.012226,0.0478 l 0.1100306,0.29076 0.1073729,-0.27002 -0.00957,-0.025 q -0.016478,-0.0431 -0.038272,-0.0595 -0.014353,-0.0106 -0.042524,-0.0122 v -0.0446 H 4.67657 v 0.0446 H 4.65584 q -0.029235,0 -0.03774,0.005 -0.014884,0.009 -0.014884,0.0271 0,0.0159 0.011163,0.0441 l 0.1100308,0.29076 0.1073729,-0.29501 q 0.0085,-0.0239 0.00904,-0.0271 0.0016,-0.006 0.0016,-0.0122 0,-0.0149 -0.011694,-0.0234 -0.011694,-0.009 -0.043056,-0.009 h -0.019667 v -0.0446 h 0.206241 v 0.0446 q -0.022857,10e-4 -0.037209,0.008 -0.014351,0.007 -0.022857,0.0181 -0.0085,0.0112 -0.02392,0.05 l -0.1552168,0.39229 H 4.6712579 L 4.54847,296.44932 4.4272768,296.75549 h -0.063254 l -0.1568069,-0.39228 q -0.014884,-0.0377 -0.024451,-0.05 -0.00957,-0.0122 -0.023919,-0.0191 -0.01382,-0.007 -0.035082,-0.007 z"
         style="font-style:normal;font-variant:normal;font-weight:normal;font-stretch:normal;font-size:medium;line-height:125%;font-family:'Bookman Old Style';-inkscape-font-specification:'Bookman Old Style';letter-spacing:0px;word-spacing:0px;fill:#17520d;fill-opacity:1;stroke:none;stroke-width:0.02721532px;stroke-linecap:butt;stroke-linejoin:miter;stroke-opacity:1"
         id="path4576"
         inkscape:connector-curvature="0"
         inkscape:export-xdpi="2574.27"
         inkscape:export-ydpi="2574.27" />
      <path
         d="m 5.3941605,296.44719 v -0.0579 q 0,-0.059 -0.032956,-0.084 -0.032956,-0.0255 -0.093021,-0.0255 -0.029767,0 -0.052092,0.007 -0.022325,0.007 -0.036145,0.0197 -0.013288,0.0122 -0.019667,0.0282 -0.00266,0.006 -0.012757,0.0452 -0.012226,0.0478 -0.049434,0.0478 -0.021262,0 -0.034551,-0.0138 -0.012757,-0.0143 -0.012757,-0.0383 0,-0.0351 0.026046,-0.0686 0.026046,-0.034 0.079201,-0.0558 0.053686,-0.0223 0.1265086,-0.0223 0.068038,0 0.1164092,0.0213 0.048371,0.0207 0.071228,0.0601 0.015947,0.0271 0.015947,0.0989 v 0.20465 q 0,0.0436 0.00266,0.0569 0.00585,0.0229 0.020199,0.0346 0.014884,0.0112 0.038272,0.0112 0.024451,0 0.05847,-0.0117 v 0.0462 q -0.044119,0.0128 -0.079201,0.0128 -0.03774,0 -0.063786,-0.0106 -0.025514,-0.0106 -0.041992,-0.0308 -0.016478,-0.0207 -0.021262,-0.0489 -0.063786,0.05 -0.115346,0.0702 -0.05156,0.0202 -0.1041836,0.0202 -0.073354,0 -0.119067,-0.0399 -0.045713,-0.0399 -0.045713,-0.0935 0,-0.0324 0.016478,-0.0617 0.017009,-0.0292 0.051029,-0.0516 0.034551,-0.0223 0.1079046,-0.0393 0.073354,-0.017 0.2035832,-0.0308 z m 0,0.0463 q -0.1233194,0.0181 -0.1525546,0.025 -0.057939,0.0133 -0.082922,0.0292 -0.024983,0.016 -0.035614,0.0346 -0.010632,0.0181 -0.010632,0.0388 0,0.0207 0.011694,0.0404 0.012226,0.0191 0.034019,0.0303 0.021794,0.0112 0.046245,0.0112 0.034551,0 0.078138,-0.0165 0.043587,-0.0165 0.1116252,-0.0643 z"
         style="font-style:normal;font-variant:normal;font-weight:normal;font-stretch:normal;font-size:medium;line-height:125%;font-family:'Bookman Old Style';-inkscape-font-specification:'Bookman Old Style';letter-spacing:0px;word-spacing:0px;fill:#17520d;fill-opacity:1;stroke:none;stroke-width:0.02721532px;stroke-linecap:butt;stroke-linejoin:miter;stroke-opacity:1"
         id="path4578"
         inkscape:connector-curvature="0"
         inkscape:export-xdpi="2574.27"
         inkscape:export-ydpi="2574.27" />
      <path
         d="m 5.642394,296.31802 v -0.0436 q 0.038803,-0.003 0.069101,-0.0128 0.030298,-0.0101 0.069101,-0.0324 h 0.039866 v 0.10046 q 0.03774,-0.0462 0.087706,-0.0734 0.049966,-0.0271 0.089832,-0.0271 0.039335,0 0.062191,0.0186 0.022857,0.0186 0.022857,0.0452 0,0.0191 -0.015415,0.034 -0.014884,0.0143 -0.036145,0.0143 -0.00957,0 -0.016478,-0.003 -0.00691,-0.003 -0.020199,-0.0117 -0.029235,-0.0191 -0.048902,-0.0191 -0.026577,0 -0.05847,0.0223 -0.040398,0.0287 -0.063254,0.0563 v 0.24505 q 0,0.0319 0.00319,0.0436 0.00372,0.0112 0.011694,0.0197 0.00797,0.008 0.019667,0.0117 0.011694,0.004 0.040929,0.004 h 0.017541 v 0.0446 H 5.642394 v -0.0446 h 0.022857 q 0.032424,0 0.042524,-0.006 0.01382,-0.008 0.020199,-0.0218 0.00691,-0.0143 0.00691,-0.051 v -0.31362 z"
         style="font-style:normal;font-variant:normal;font-weight:normal;font-stretch:normal;font-size:medium;line-height:125%;font-family:'Bookman Old Style';-inkscape-font-specification:'Bookman Old Style';letter-spacing:0px;word-spacing:0px;fill:#17520d;fill-opacity:1;stroke:none;stroke-width:0.02721532px;stroke-linecap:butt;stroke-linejoin:miter;stroke-opacity:1"
         id="path4580"
         inkscape:connector-curvature="0"
         inkscape:export-xdpi="2574.27"
         inkscape:export-ydpi="2574.27" />
      <path
         d="m 6.4530061,296.06501 v -0.0452 q 0.036145,-0.003 0.065912,-0.0122 0.030298,-0.01 0.07548,-0.0324 h 0.039866 v 0.64476 q 0,0.0447 0.00213,0.0542 0.00531,0.0202 0.018073,0.0282 0.012757,0.008 0.049434,0.008 h 0.022857 v 0.0446 l -0.1844476,0.009 v -0.0845 q -0.053155,0.0484 -0.099931,0.0686 -0.046245,0.0202 -0.093021,0.0202 -0.09621,0 -0.1599963,-0.0771 -0.063254,-0.0776 -0.063254,-0.18657 0,-0.0776 0.033488,-0.14193 0.034019,-0.0649 0.0893,-0.0989 0.055281,-0.034 0.1211932,-0.034 0.050497,0 0.093553,0.0175 0.043056,0.0175 0.078669,0.0526 v -0.23441 z m 0.0893,0.56131 v -0.20092 q 0,-0.0431 -0.016478,-0.0702 -0.015947,-0.0276 -0.053155,-0.0478 -0.036677,-0.0202 -0.07548,-0.0202 -0.046245,0 -0.085579,0.0255 -0.038803,0.025 -0.061128,0.0728 -0.021793,0.0473 -0.021793,0.11482 0,0.0638 0.020199,0.11056 0.02073,0.0462 0.055281,0.0707 0.03455,0.0239 0.070696,0.0239 0.035614,0 0.080795,-0.0202 0.045182,-0.0207 0.086642,-0.059 z"
         style="font-style:normal;font-variant:normal;font-weight:normal;font-stretch:normal;font-size:medium;line-height:125%;font-family:'Bookman Old Style';-inkscape-font-specification:'Bookman Old Style';letter-spacing:0px;word-spacing:0px;fill:#17520d;fill-opacity:1;stroke:none;stroke-width:0.02721532px;stroke-linecap:butt;stroke-linejoin:miter;stroke-opacity:1"
         id="path4582"
         inkscape:connector-curvature="0"
         inkscape:export-xdpi="2574.27"
         inkscape:export-ydpi="2574.27" />
      <path
         d="m 7.5416834,296.06129 h 0.03774 v 0.18072 h 0.15787 v 0.0532 h -0.15787 v 0.32052 q 0,0.0409 0.00691,0.0585 0.00744,0.0175 0.024451,0.0287 0.01754,0.0112 0.038803,0.0112 0.050497,0 0.1116252,-0.0452 v 0.0516 q -0.069633,0.0473 -0.1408605,0.0473 -0.040398,0 -0.073354,-0.0181 -0.032424,-0.0181 -0.04465,-0.0425 -0.011694,-0.0245 -0.011694,-0.085 v -0.3269 h -0.093021 v -0.0446 q 0.04465,-0.0101 0.071759,-0.0314 0.027641,-0.0213 0.04465,-0.0553 0.017009,-0.034 0.027641,-0.10259 z"
         style="font-style:normal;font-variant:normal;font-weight:normal;font-stretch:normal;font-size:medium;line-height:125%;font-family:'Bookman Old Style';-inkscape-font-specification:'Bookman Old Style';letter-spacing:0px;word-spacing:0px;fill:#8b3b12;fill-opacity:1;stroke:none;stroke-width:0.02721532px;stroke-linecap:butt;stroke-linejoin:miter;stroke-opacity:1"
         id="path4584"
         inkscape:connector-curvature="0"
         inkscape:export-xdpi="2574.27"
         inkscape:export-ydpi="2574.27" />
      <path
         d="m 8.084927,296.22926 q 0.078138,0 0.1350134,0.0324 0.057407,0.0324 0.090363,0.0946 0.032956,0.0622 0.032956,0.14192 0,0.0797 -0.034019,0.14192 -0.033488,0.0622 -0.091958,0.0952 -0.057939,0.0324 -0.1387345,0.0324 -0.1286348,0 -0.1934837,-0.0803 -0.064318,-0.0803 -0.064318,-0.1887 0,-0.0792 0.033488,-0.14033 0.033488,-0.0617 0.093553,-0.0951 0.060597,-0.034 0.1371396,-0.034 z m -0.00425,0.0516 q -0.060597,0 -0.1025891,0.0478 -0.053155,0.0595 -0.053155,0.17328 0,0.1095 0.045182,0.16691 0.040929,0.051 0.1110938,0.051 0.045182,0 0.080264,-0.0239 0.035614,-0.0239 0.057408,-0.076 0.021793,-0.0526 0.021793,-0.12331 0,-0.0691 -0.023388,-0.12386 -0.018073,-0.0436 -0.05475,-0.0675 -0.036145,-0.0245 -0.081859,-0.0245 z"
         style="font-style:normal;font-variant:normal;font-weight:normal;font-stretch:normal;font-size:medium;line-height:125%;font-family:'Bookman Old Style';-inkscape-font-specification:'Bookman Old Style';letter-spacing:0px;word-spacing:0px;fill:#8b3b12;fill-opacity:1;stroke:none;stroke-width:0.02721532px;stroke-linecap:butt;stroke-linejoin:miter;stroke-opacity:1"
         id="path4586"
         inkscape:connector-curvature="0"
         inkscape:export-xdpi="2574.27"
         inkscape:export-ydpi="2574.27" />
      <path
         d="m 9.0403312,296.06394 v -0.0441 q 0.035082,-0.003 0.067507,-0.0128 0.032956,-0.0101 0.073354,-0.0319 h 0.038803 v 0.32424 q 0.046776,-0.0351 0.096211,-0.0526 0.049434,-0.0175 0.1009942,-0.0175 0.059534,0 0.1100309,0.0319 0.0505,0.0319 0.0792,0.0904 0.02924,0.0579 0.02924,0.13714 0,0.12439 -0.07282,0.20465 -0.06751,0.0744 -0.171159,0.0744 -0.062191,0 -0.1110937,-0.026 -0.036145,-0.0191 -0.070164,-0.059 l -0.029235,0.0723 h -0.049436 v -0.69101 z m 0.1796636,0.2881 v 0.20465 q 0,0.0484 0.00691,0.068 0.00691,0.0191 0.028172,0.0399 0.021793,0.0202 0.050497,0.0324 0.029235,0.0117 0.060065,0.0117 0.047308,0 0.086111,-0.025 0.038803,-0.025 0.061128,-0.0739 0.02232,-0.0489 0.02232,-0.11748 0,-0.0962 -0.04731,-0.15415 -0.03774,-0.0478 -0.1057777,-0.0478 -0.035082,0 -0.071228,0.0133 -0.036145,0.0128 -0.090895,0.0484 z"
         style="font-style:normal;font-variant:normal;font-weight:normal;font-stretch:normal;font-size:medium;line-height:125%;font-family:'Bookman Old Style';-inkscape-font-specification:'Bookman Old Style';letter-spacing:0px;word-spacing:0px;fill:#6e0e27;fill-opacity:1;stroke:none;stroke-width:0.02721532px;stroke-linecap:butt;stroke-linejoin:miter;stroke-opacity:1"
         id="path4588"
         inkscape:connector-curvature="0"
         inkscape:export-xdpi="2574.27"
         inkscape:export-ydpi="2574.27" />
      <path
         d="m 9.6967943,296.24201 0.201457,-0.008 v 0.34232 q 0,0.0452 0.01223,0.0718 0.01276,0.0266 0.03827,0.0415 0.02605,0.0144 0.0606,0.0144 0.04252,0 0.09621,-0.0229 0.05422,-0.0229 0.107905,-0.068 v -0.2477 q 0,-0.0393 -0.0059,-0.0516 -0.0059,-0.0122 -0.02073,-0.0197 -0.01488,-0.007 -0.04678,-0.007 h -0.0388 v -0.0446 l 0.201457,-0.008 v 0.39653 q 0,0.0383 0.0064,0.0532 0.0064,0.0143 0.0186,0.0207 0.01276,0.006 0.0505,0.006 h 0.01648 v 0.0446 l -0.176474,0.009 v -0.0983 q -0.07282,0.0579 -0.12704,0.0803 -0.05422,0.0218 -0.1100307,0.0218 -0.04146,0 -0.07229,-0.0112 -0.0303,-0.0112 -0.05369,-0.0335 -0.02286,-0.0223 -0.03508,-0.0537 -0.01223,-0.0314 -0.01223,-0.067 v -0.24185 q 0,-0.0324 -0.0059,-0.0452 -0.0059,-0.0133 -0.01967,-0.0207 -0.01329,-0.008 -0.03668,-0.008 h -0.0489 z"
         style="font-style:normal;font-variant:normal;font-weight:normal;font-stretch:normal;font-size:medium;line-height:125%;font-family:'Bookman Old Style';-inkscape-font-specification:'Bookman Old Style';letter-spacing:0px;word-spacing:0px;fill:#6e0e27;fill-opacity:1;stroke:none;stroke-width:0.02721532px;stroke-linecap:butt;stroke-linejoin:miter;stroke-opacity:1"
         id="path4590"
         inkscape:connector-curvature="0"
         inkscape:export-xdpi="2574.27"
         inkscape:export-ydpi="2574.27" />
      <path
         d="m 10.876302,296.28401 q 0.02392,-0.0282 0.04837,-0.0415 0.02498,-0.0133 0.04571,-0.0133 0.01914,0 0.03189,0.0117 0.01329,0.0112 0.01329,0.0276 0,0.017 -0.01169,0.0287 -0.01169,0.0117 -0.02977,0.0117 -0.0074,0 -0.0202,-0.003 -0.01488,-0.004 -0.02498,-0.004 -0.01329,0 -0.02764,0.0122 0.03296,0.0399 0.03296,0.0935 0,0.0734 -0.06166,0.12704 -0.06166,0.0537 -0.155744,0.0537 -0.05209,0 -0.104715,-0.0218 -0.03508,0.025 -0.03987,0.0308 -0.0074,0.009 -0.0074,0.0191 0,0.0154 0.01595,0.0255 0.0202,0.0133 0.07973,0.0223 l 0.153618,0.0229 q 0.05103,0.008 0.102589,0.0266 0.05156,0.0186 0.07442,0.0484 0.02339,0.0298 0.02339,0.0712 0,0.0702 -0.06485,0.11216 Q 10.867265,297 10.705142,297 q -0.08505,0 -0.138202,-0.0181 -0.05316,-0.0181 -0.08239,-0.051 -0.02126,-0.0239 -0.02126,-0.0494 0,-0.033 0.02126,-0.0643 0.02179,-0.0314 0.09993,-0.0893 -0.0505,-0.0128 -0.07229,-0.0298 -0.02764,-0.0218 -0.02764,-0.0494 0,-0.0138 0.0048,-0.0255 0.0053,-0.0122 0.01648,-0.0239 0.01169,-0.0122 0.04199,-0.0335 0.01914,-0.0133 0.02711,-0.0197 -0.0388,-0.0276 -0.05847,-0.0617 -0.01967,-0.0345 -0.01967,-0.0755 0,-0.0675 0.05209,-0.118 0.06326,-0.0617 0.170628,-0.0617 0.04784,0 0.08345,0.0122 0.03561,0.0117 0.07335,0.0425 z m -0.161591,-0.005 q -0.05209,0 -0.08824,0.0377 -0.03615,0.0377 -0.03615,0.0935 0,0.0372 0.01648,0.0675 0.01648,0.0298 0.04625,0.0473 0.02977,0.017 0.06272,0.017 0.03296,0 0.06272,-0.0175 0.0303,-0.0175 0.04624,-0.0473 0.01648,-0.0298 0.01648,-0.067 0,-0.0585 -0.03561,-0.0946 -0.03508,-0.0367 -0.09089,-0.0367 z m -0.08452,0.46139 q -0.05103,0.0436 -0.06804,0.0707 -0.01648,0.0271 -0.01648,0.0521 0,0.0213 0.01648,0.0409 0.01701,0.0202 0.05741,0.033 0.0404,0.0128 0.101526,0.0128 0.07229,0 0.123851,-0.0159 0.05209,-0.0154 0.07442,-0.0399 0.01648,-0.0191 0.01648,-0.0452 0,-0.0223 -0.01382,-0.0377 -0.01329,-0.0154 -0.05103,-0.0271 -0.03721,-0.0112 -0.06963,-0.0165 z"
         style="font-style:normal;font-variant:normal;font-weight:normal;font-stretch:normal;font-size:medium;line-height:125%;font-family:'Bookman Old Style';-inkscape-font-specification:'Bookman Old Style';letter-spacing:0px;word-spacing:0px;fill:#6e0e27;fill-opacity:1;stroke:none;stroke-width:0.02721532px;stroke-linecap:butt;stroke-linejoin:miter;stroke-opacity:1"
         id="path4592"
         inkscape:connector-curvature="0"
         inkscape:export-xdpi="2574.27"
         inkscape:export-ydpi="2574.27" />
      <path
         d="m 11.41423,296.24201 h 0.03721 l 0.04784,0.16266 -0.04784,0.0159 q -0.0287,-0.0654 -0.0808,-0.10259 -0.05156,-0.0377 -0.104715,-0.0377 -0.04093,0 -0.06644,0.0202 -0.02551,0.0197 -0.02551,0.0457 0,0.0245 0.0186,0.042 0.01807,0.0181 0.08133,0.0409 l 0.103652,0.0367 q 0.08771,0.0314 0.119598,0.067 0.03136,0.0361 0.03136,0.0819 0,0.0388 -0.02339,0.075 -0.02339,0.0356 -0.06804,0.0569 -0.04412,0.0213 -0.101526,0.0213 -0.0893,0 -0.153087,-0.051 l -0.01116,0.0383 h -0.03774 l -0.06644,-0.17382 0.04837,-0.0191 q 0.04837,0.0765 0.09143,0.10843 0.06006,0.0452 0.129698,0.0452 0.04624,0 0.07601,-0.0245 0.02977,-0.025 0.02977,-0.0553 0,-0.025 -0.0186,-0.0457 -0.01914,-0.0202 -0.07335,-0.0393 l -0.122788,-0.0446 q -0.0792,-0.0287 -0.11003,-0.0627 -0.03083,-0.034 -0.03083,-0.0781 0,-0.0537 0.04997,-0.0946 0.0505,-0.0415 0.128103,-0.0415 0.0404,0 0.07229,0.0106 0.03189,0.0101 0.06272,0.034 z"
         style="font-style:normal;font-variant:normal;font-weight:normal;font-stretch:normal;font-size:medium;line-height:125%;font-family:'Bookman Old Style';-inkscape-font-specification:'Bookman Old Style';letter-spacing:0px;word-spacing:0px;fill:#6e0e27;fill-opacity:1;stroke:none;stroke-width:0.02721532px;stroke-linecap:butt;stroke-linejoin:miter;stroke-opacity:1"
         id="path4594"
         inkscape:connector-curvature="0"
         inkscape:export-xdpi="2574.27"
         inkscape:export-ydpi="2574.27" />
    </g>
  </g>
</svg>
